# xmcd CD database file generated by freedbAccess_ocx
#
# Track frame offsets:
#       182
#       18232
#       29332
#       40370
#       52807
#       77607
#       86245
#       100470
#       113657
#       124732
#       137932
#       161632
#       169807
#       182245
#       194970
#       210682
#       219332
#       229132
#       242007
#       253695
#       274682
#
# Disc length: 3816 seconds
#
# Revision: 0
# Processed by: cddbd v1.4PL0 Copyright (c) Steve Scherf et al.
# Submitted via: CDnGo 2.00
#
DISCID=300ee615
DTITLE=Ladislav Vodicka - Ridic tvrdy chleba ma
DYEAR=1993
DGENRE=Country
TTITLE0=There Ain't No Easy Run
TTITLE1=Vune ruzi
TTITLE2=Operation \"X\"
TTITLE3=Down Yonder
TTITLE4=Divka z hor
TTITLE5=Big City
TTITLE6=I Promise You
TTITLE7=Long Black Veil
TTITLE8=Wabash Cannon Ball
TTITLE9=Ja tu zemi znam
TTITLE10=Casey Jones
TTITLE11=Liben blues
TTITLE12=Bury Me Not On The Lone Praire
TTITLE13=Vem na to jed
TTITLE14=Rezava mriz
TTITLE15=Zeleznicarska romance
TTITLE16=Pan American
TTITLE17=Mel sve duvody
TTITLE18=Silver Rails
TTITLE19=Shane
TTITLE20=Ridic tvrdy chleba ma
EXTD=
EXTT0=
EXTT1=
EXTT2=
EXTT3=
EXTT4=
EXTT5=
EXTT6=
EXTT7=
EXTT8=
EXTT9=
EXTT10=
EXTT11=
EXTT12=
EXTT13=
EXTT14=
EXTT15=
EXTT16=
EXTT17=
EXTT18=
EXTT19=
EXTT20=
PLAYORDER=
